<?xml version="1.0" encoding="utf-8"?>
<!-- Generator: Adobe Illustrator 26.0.1, SVG Export Plug-In . SVG Version: 6.00 Build 0)  -->
<svg version="1.1" id="Layer_1" xmlns="http://www.w3.org/2000/svg" xmlns:xlink="http://www.w3.org/1999/xlink" x="0px" y="0px"
	 viewBox="0 0 82.2 82.2" style="enable-background:new 0 0 82.2 82.2;" xml:space="preserve">
<style type="text/css">
	.st0{fill:none;stroke:#282828;stroke-width:1;stroke-linecap:square;stroke-linejoin:bevel;stroke-miterlimit:2.4;}
</style>
<desc>Efofex Encoded SVG</desc>
<g transform="matrix(1,0,0,1,0,0)">
	<line vector-effect="none" class="st0" x1="62.4" y1="5.8" x2="62.4" y2="76.6"/>
</g>
<g transform="matrix(1,0,0,1,0,0)">
	<line vector-effect="none" class="st0" x1="76.6" y1="34.1" x2="5.7" y2="34.1"/>
</g>
<g transform="matrix(1,0,0,1,0,0)">
	<line vector-effect="none" class="st0" x1="62.4" y1="5.8" x2="5.7" y2="34.1"/>
</g>
<g transform="matrix(1,0,0,1,0,0)">
	<line vector-effect="none" class="st0" x1="5.7" y1="34.1" x2="62.4" y2="76.6"/>
</g>
<g transform="matrix(1,0,0,1,0,0)">
	<line vector-effect="none" class="st0" x1="76.6" y1="34.1" x2="62.4" y2="76.6"/>
</g>
<g transform="matrix(1,0,0,1,0,0)">
	<line vector-effect="none" class="st0" x1="62.4" y1="5.8" x2="76.6" y2="34.1"/>
</g>
</svg>
