<?xml version="1.0" encoding="UTF-8" standalone="no"?>
<svg width="59.055mm" height="29.4217mm"
 viewBox="14 36 279 139"
 xmlns="http://www.w3.org/2000/svg" xmlns:xlink="http://www.w3.org/1999/xlink"  version="1.2" baseProfile="tiny">
<title>{2a04b7a4-9617-47e1-a868-8cd38c804380}</title>
<desc>Efofex Encoded SVG</desc>
<defs>
</defs>
<g fill="none" stroke="black" stroke-width="1" fill-rule="evenodd" stroke-linecap="square" stroke-linejoin="bevel" >

<g fill="none" stroke="#000000" stroke-opacity="0.00392157" stroke-width="1" stroke-linecap="square" stroke-linejoin="bevel" transform="matrix(1,0,0,1,0,0)"
font-family="MS Shell Dlg 2" font-size="1.66667" font-weight="400" font-style="normal" 
>
<text fill="#000000" fill-opacity="0.00392157" stroke="none" xml:space="preserve" x="14" y="41" font-family="MS Shell Dlg 2" font-size="1.66667" font-weight="400" font-style="normal" 
 >FXID{2a04b7a4-9617-47e1-a868-8cd38c804380}/FXID</text>
<text fill="#000000" fill-opacity="0.00392157" stroke="none" xml:space="preserve" x="14" y="46" font-family="MS Shell Dlg 2" font-size="1.66667" font-weight="400" font-style="normal" 
 >FXPRODUCTFX Draw/FXPRODUCT</text>
</g>

<g fill="none" stroke="#282828" stroke-opacity="1" stroke-width="1.66667" stroke-linecap="square" stroke-linejoin="bevel" transform="matrix(1,0,0,1,0,0)"
font-family="Efofex" font-size="18.3333" font-weight="400" font-style="normal" 
>
<polyline fill="none" vector-effect="none" points="47.2441,47.2441 212.598,47.2441 " />
</g>

<g fill="none" stroke="#282828" stroke-opacity="1" stroke-width="1.66667" stroke-linecap="square" stroke-linejoin="bevel" transform="matrix(1,0,0,1,0,0)"
font-family="Efofex" font-size="18.3333" font-weight="400" font-style="normal" 
>
<polyline fill="none" vector-effect="none" points="47.2441,47.2441 23.622,165.354 " />
</g>

<g fill="none" stroke="#282828" stroke-opacity="1" stroke-width="1.66667" stroke-linecap="square" stroke-linejoin="bevel" transform="matrix(1,0,0,1,0,0)"
font-family="Efofex" font-size="18.3333" font-weight="400" font-style="normal" 
>
<polyline fill="none" vector-effect="none" points="212.598,47.2441 188.976,165.354 " />
</g>

<g fill="none" stroke="#282828" stroke-opacity="1" stroke-width="1.66667" stroke-linecap="square" stroke-linejoin="bevel" transform="matrix(1,0,0,1,0,0)"
font-family="Efofex" font-size="18.3333" font-weight="400" font-style="normal" 
>
<polyline fill="none" vector-effect="none" points="23.622,165.354 188.976,165.354 " />
</g>

<g fill="none" stroke="#282828" stroke-opacity="1" stroke-width="1.66667" stroke-linecap="square" stroke-linejoin="bevel" transform="matrix(1,0,0,1,0,0)"
font-family="Efofex" font-size="18.3333" font-weight="400" font-style="normal" 
>
<polyline fill="none" vector-effect="none" points="212.598,47.2441 283.465,47.2441 " />
</g>

<g fill="#282828" fill-opacity="1" stroke="#282828" stroke-opacity="1" stroke-width="1.25" stroke-linecap="square" stroke-linejoin="bevel" transform="matrix(1,0,0,1,0,0)"
font-family="Efofex" font-size="18.3333" font-weight="400" font-style="normal" 
>
<circle cx="259.843" cy="47.2441" r="2"/>
</g>

<g fill="#282828" fill-opacity="1" stroke="#000000" stroke-opacity="1" stroke-width="1" stroke-linecap="square" stroke-linejoin="bevel" transform="matrix(1,0,0,1,0,0)"
font-family="Times New Roman" font-size="26.6667" font-weight="400" font-style="normal" 
>
</g>

<g fill="#282828" fill-opacity="1" stroke="#000000" stroke-opacity="1" stroke-width="1" stroke-linecap="square" stroke-linejoin="bevel" transform="matrix(1,0,0,1,0,0)"
font-family="Times New Roman" font-size="26.6667" font-weight="400" font-style="normal" 
>
</g>

<g fill="#282828" fill-opacity="1" stroke="#282828" stroke-opacity="1" stroke-width="1.66667" stroke-linecap="square" stroke-linejoin="bevel" transform="matrix(1,0,0,1,0,0)"
font-family="Efofex" font-size="18.3333" font-weight="400" font-style="normal" 
>
<polyline fill="none" vector-effect="none" points="193.701,47.2441 193.713,47.9306 193.751,48.6163 193.813,49.3001 193.9,49.9812 194.012,50.6587 194.148,51.3317 194.309,51.9993 194.494,52.6606 194.702,53.3148 194.935,53.961 195.19,54.5983 195.469,55.2258 195.77,55.8429 196.094,56.4485 196.439,57.0421 196.806,57.6227 197.193,58.1896 197.601,58.742 198.029,59.2793 198.476,59.8006 198.941,60.3054 199.425,60.793 199.926,61.2626 200.443,61.7138 200.977,62.1458 201.526,62.5582 202.09,62.9503 202.667,63.3218 203.258,63.6719 203.861,64.0004 204.475,64.3068 205.101,64.5907 205.736,64.8516 206.38,65.0893 207.032,65.3034 207.692,65.4937 208.358,65.6599 208.892,65.7748 " />
</g>

<g fill="#282828" fill-opacity="1" stroke="#282828" stroke-opacity="1" stroke-width="1.66667" stroke-linecap="square" stroke-linejoin="bevel" transform="matrix(1,0,0,1,0,0)"
font-family="Efofex" font-size="18.3333" font-weight="400" font-style="normal" 
>
<polyline fill="none" vector-effect="none" points="192.683,146.824 191.812,146.671 190.935,146.558 190.054,146.487 189.17,146.458 188.286,146.469 187.404,146.522 186.525,146.616 185.651,146.752 184.785,146.927 183.928,147.144 183.082,147.4 182.248,147.695 181.43,148.029 180.628,148.401 179.844,148.81 179.08,149.255 178.338,149.735 177.62,150.25 176.926,150.798 176.258,151.377 175.618,151.987 175.008,152.626 174.428,153.294 173.88,153.987 173.365,154.706 172.884,155.447 172.438,156.211 172.029,156.994 171.656,157.796 171.322,158.614 171.026,159.447 170.769,160.293 170.552,161.15 170.376,162.017 170.24,162.89 170.145,163.769 170.092,164.651 170.079,165.354 " />
</g>

<g fill="#282828" fill-opacity="1" stroke="#282828" stroke-opacity="1" stroke-width="1.66667" stroke-linecap="square" stroke-linejoin="bevel" transform="matrix(1,0,0,1,0,0)"
font-family="Efofex" font-size="18.3333" font-weight="400" font-style="normal" 
>
<polyline fill="none" vector-effect="none" points="208.892,65.7748 209.763,65.9278 210.64,66.04 211.521,66.111 212.405,66.1407 213.288,66.1291 214.171,66.0762 215.05,65.9821 215.923,65.8469 216.79,65.6711 217.647,65.4549 218.493,65.1988 219.326,64.9035 220.145,64.5696 220.947,64.1977 221.731,63.7887 222.494,63.3435 223.236,62.8631 223.955,62.3485 224.649,61.8009 225.317,61.2214 225.957,60.6113 226.567,59.972 227.147,59.3048 227.695,58.6112 228.21,57.8928 228.691,57.151 229.137,56.3876 229.546,55.6041 229.919,54.8024 230.253,53.9841 230.549,53.1511 230.806,52.3051 231.023,51.4481 231.199,50.5819 231.335,49.7083 231.429,48.8294 231.483,47.947 231.496,47.2441 " />
</g>
</g>
</svg>
