<?xml version="1.0" encoding="UTF-8" standalone="no"?>
<svg width="44.0267mm" height="28.9983mm"
 viewBox="14 14 208 137"
 xmlns="http://www.w3.org/2000/svg" xmlns:xlink="http://www.w3.org/1999/xlink"  version="1.2" baseProfile="tiny">
<title>{27d9ab10-1bc2-46ba-a967-cdf807f0aa1a}</title>
<desc>Efofex Encoded SVG</desc>
<defs>
</defs>
<g fill="none" stroke="black" stroke-width="1" fill-rule="evenodd" stroke-linecap="square" stroke-linejoin="bevel" >

<g fill="none" stroke="#000000" stroke-opacity="0.00392157" stroke-width="1" stroke-linecap="square" stroke-linejoin="bevel" transform="matrix(1,0,0,1,0,0)"
font-family="MS Shell Dlg 2" font-size="1.66667" font-weight="400" font-style="normal" 
>
<text fill="#000000" fill-opacity="0.00392157" stroke="none" xml:space="preserve" x="14" y="19" font-family="MS Shell Dlg 2" font-size="1.66667" font-weight="400" font-style="normal" 
 >FXID{27d9ab10-1bc2-46ba-a967-cdf807f0aa1a}/FXID</text>
<text fill="#000000" fill-opacity="0.00392157" stroke="none" xml:space="preserve" x="14" y="24" font-family="MS Shell Dlg 2" font-size="1.66667" font-weight="400" font-style="normal" 
 >FXPRODUCTFX Draw/FXPRODUCT</text>
</g>

<g fill="none" stroke="#282828" stroke-opacity="1" stroke-width="2.08333" stroke-linecap="square" stroke-linejoin="bevel" transform="matrix(1,0,0,1,0,0)"
font-family="Efofex" font-size="18.3333" font-weight="400" font-style="normal" 
>
<polyline fill="none" vector-effect="none" points="47.2441,23.622 23.622,141.732 " />
</g>

<g fill="none" stroke="#282828" stroke-opacity="1" stroke-width="2.08333" stroke-linecap="square" stroke-linejoin="bevel" transform="matrix(1,0,0,1,0,0)"
font-family="Efofex" font-size="18.3333" font-weight="400" font-style="normal" 
>
<polyline fill="none" vector-effect="none" points="47.2441,23.622 212.598,23.622 " />
</g>

<g fill="none" stroke="#282828" stroke-opacity="1" stroke-width="2.08333" stroke-linecap="square" stroke-linejoin="bevel" transform="matrix(1,0,0,1,0,0)"
font-family="Efofex" font-size="18.3333" font-weight="400" font-style="normal" 
>
<polyline fill="none" vector-effect="none" points="23.622,141.732 188.976,141.732 " />
</g>

<g fill="none" stroke="#282828" stroke-opacity="1" stroke-width="2.08333" stroke-linecap="square" stroke-linejoin="bevel" transform="matrix(1,0,0,1,0,0)"
font-family="Efofex" font-size="18.3333" font-weight="400" font-style="normal" 
>
<polyline fill="none" vector-effect="none" points="212.598,23.622 188.976,141.732 " />
</g>

<g fill="none" stroke="#282828" stroke-opacity="1" stroke-width="1.66667" stroke-linecap="square" stroke-linejoin="bevel" transform="matrix(1,0,0,1,0,0)"
font-family="Efofex" font-size="18.3333" font-weight="400" font-style="normal" 
>
<polyline fill="none" vector-effect="none" points="212.598,23.622 23.622,141.732 " />
</g>

<g fill="#282828" fill-opacity="1" stroke="#282828" stroke-opacity="1" stroke-width="1.66667" stroke-linecap="square" stroke-linejoin="bevel" transform="matrix(1,0,0,1,0,0)"
font-family="Efofex" font-size="18.3333" font-weight="400" font-style="normal" 
>
<polyline fill="none" vector-effect="none" points="51.9685,141.732 51.9671,141.453 51.963,141.174 51.9561,140.895 51.9465,140.615 51.9341,140.336 51.919,140.057 51.9011,139.779 51.8805,139.5 51.8571,139.222 51.831,138.944 51.8022,138.666 51.7706,138.388 51.7363,138.111 51.6992,137.834 51.6595,137.558 51.617,137.282 51.5718,137.006 51.5239,136.731 51.4732,136.457 51.4199,136.182 51.3639,135.909 51.3051,135.636 51.2437,135.363 51.1796,135.091 51.1129,134.82 51.0434,134.55 50.9713,134.28 50.8966,134.011 50.8192,133.742 50.7391,133.475 50.6564,133.208 50.5711,132.942 50.4832,132.677 50.3927,132.413 50.2996,132.149 50.2039,131.887 50.1056,131.626 50.0047,131.365 49.9013,131.106 49.7953,130.847 49.6868,130.59 49.5757,130.334 49.4621,130.078 49.3461,129.824 49.2275,129.572 49.1064,129.32 48.9829,129.069 48.8569,128.82 48.7285,128.572 48.5976,128.325 48.4643,128.08 48.3285,127.836 48.1904,127.593 48.0499,127.352 47.907,127.112 47.7618,126.873 47.6598,126.709 " />
</g>

<g fill="#000000" fill-opacity="1" stroke="#000000" stroke-opacity="1" stroke-width="1.25" stroke-linecap="square" stroke-linejoin="bevel" transform="matrix(1,0,0,1,0,0)"
font-family="Times New Roman" font-size="20" font-weight="400" font-style="normal" 
>
</g>

<g fill="#000000" fill-opacity="1" stroke="#000000" stroke-opacity="1" stroke-width="1.25" stroke-linecap="square" stroke-linejoin="bevel" transform="matrix(1,0,0,1,0,0)"
font-family="Times New Roman" font-size="20" font-weight="400" font-style="normal" 
>
</g>

<g fill="#000000" fill-opacity="1" stroke="#282828" stroke-opacity="1" stroke-width="1.66667" stroke-linecap="square" stroke-linejoin="bevel" transform="matrix(1,0,0,1,0,0)"
font-family="Times New Roman" font-size="20" font-weight="400" font-style="normal" 
>
<polyline fill="none" vector-effect="none" points="184.252,23.622 184.253,23.9013 184.257,24.1806 184.264,24.4598 184.274,24.739 184.286,25.018 184.301,25.2969 184.319,25.5756 184.34,25.8541 184.363,26.1325 184.389,26.4105 184.418,26.6883 184.45,26.9658 184.484,27.243 184.521,27.5199 184.561,27.7963 184.603,28.0724 184.649,28.348 184.697,28.6231 184.747,28.8978 184.801,29.172 184.857,29.4456 184.915,29.7186 184.977,29.9911 185.041,30.2629 185.108,30.5341 185.177,30.8047 185.249,31.0745 185.324,31.3436 185.401,31.612 185.481,31.8796 185.564,32.1463 185.649,32.4123 185.737,32.6774 185.828,32.9416 185.921,33.2049 186.017,33.4673 186.115,33.7287 186.216,33.9892 186.319,34.2486 186.425,34.507 186.534,34.7644 186.645,35.0207 186.758,35.2758 186.874,35.5299 186.993,35.7827 187.114,36.0344 187.238,36.2849 187.364,36.5342 187.492,36.7822 187.623,37.0289 187.756,37.2744 187.892,37.5185 188.03,37.7612 188.171,38.0026 188.313,38.2426 188.459,38.4812 188.561,38.6456 " />
</g>

<g fill="#000000" fill-opacity="1" stroke="#282828" stroke-opacity="1" stroke-width="1.66667" stroke-linecap="square" stroke-linejoin="bevel" transform="matrix(1,0,0,1,0,0)"
font-family="Efofex" font-size="18.3333" font-weight="400" font-style="normal" 
>
<polyline fill="none" vector-effect="none" points="207.039,51.418 206.64,51.3353 206.243,51.2468 205.846,51.1526 205.451,51.0527 205.058,50.9472 204.666,50.836 204.276,50.7191 203.887,50.5967 203.5,50.4687 203.115,50.3352 202.732,50.1962 202.352,50.0516 201.973,49.9016 201.596,49.7462 201.222,49.5854 200.85,49.4192 200.48,49.2477 200.113,49.0709 199.749,48.8888 199.387,48.7016 199.028,48.5091 198.672,48.3115 198.318,48.1088 197.968,47.9011 197.621,47.6883 197.276,47.4705 196.935,47.2479 196.597,47.0203 196.262,46.7879 195.931,46.5508 195.603,46.3089 195.279,46.0623 194.958,45.811 194.641,45.5552 194.328,45.2949 194.018,45.0301 193.713,44.7608 193.411,44.4872 193.113,44.2093 192.819,43.9272 192.529,43.6408 192.244,43.3503 191.962,43.0557 191.685,42.7572 191.412,42.4546 191.144,42.1482 190.88,41.8379 190.62,41.5239 190.365,41.2062 190.115,40.8849 189.869,40.5599 189.628,40.2315 189.392,39.8997 189.16,39.5645 188.933,39.226 188.711,38.8843 188.561,38.6456 " />
<polyline fill="none" vector-effect="none" points="208.151,45.8588 207.752,45.7754 207.355,45.6847 206.96,45.587 206.566,45.4821 206.174,45.3702 205.785,45.2513 205.397,45.1254 205.012,44.9926 204.629,44.8529 204.249,44.7063 203.872,44.5529 203.497,44.3927 203.126,44.2259 202.757,44.0524 202.391,43.8723 202.029,43.6857 201.671,43.4926 201.315,43.293 200.964,43.0872 200.616,42.875 200.272,42.6567 199.932,42.4322 199.596,42.2016 199.265,41.965 198.937,41.7225 198.614,41.4742 198.296,41.2201 197.982,40.9603 197.673,40.695 197.369,40.4241 197.069,40.1478 196.775,39.8661 196.486,39.5793 196.202,39.2872 195.923,38.9901 195.649,38.6881 195.382,38.3812 195.119,38.0695 194.862,37.7532 194.611,37.4323 194.366,37.1069 194.127,36.7772 193.894,36.4433 193.666,36.1052 193.445,35.7631 193.368,35.6409 " />
</g>

<g fill="#000000" fill-opacity="1" stroke="#282828" stroke-opacity="1" stroke-width="1.66667" stroke-linecap="square" stroke-linejoin="bevel" transform="matrix(1,0,0,1,0,0)"
font-family="Efofex" font-size="18.3333" font-weight="400" font-style="normal" 
>
<polyline fill="none" vector-effect="none" points="29.1812,113.936 29.5801,114.019 29.9778,114.108 30.3742,114.202 30.7691,114.302 31.1626,114.407 31.5546,114.518 31.9448,114.635 32.3334,114.758 32.7202,114.886 33.1051,115.019 33.488,115.158 33.8689,115.303 34.2477,115.453 34.6243,115.608 34.9986,115.769 35.3706,115.935 35.7401,116.107 36.1071,116.283 36.4716,116.465 36.8334,116.653 37.1924,116.845 37.5487,117.043 37.9021,117.246 38.2525,117.453 38.6,117.666 38.9443,117.884 39.2855,118.106 39.6234,118.334 39.958,118.566 40.2892,118.804 40.617,119.045 40.9413,119.292 41.2621,119.543 41.5791,119.799 41.8925,120.059 42.2021,120.324 42.5078,120.593 42.8097,120.867 43.1076,121.145 43.4014,121.427 43.6912,121.714 43.9768,122.004 44.2583,122.299 44.5354,122.597 44.8083,122.9 45.0767,123.206 45.3408,123.516 45.6003,123.83 45.8553,124.148 46.1058,124.469 46.3515,124.794 46.5926,125.123 46.8289,125.455 47.0605,125.79 47.2872,126.128 47.509,126.47 47.6598,126.709 " />
<polyline fill="none" vector-effect="none" points="28.0694,119.495 28.4682,119.579 28.8653,119.67 29.2608,119.767 29.6545,119.872 30.0462,119.984 30.4359,120.103 30.8233,120.229 31.2085,120.362 31.5912,120.501 31.9713,120.648 32.3487,120.801 32.7233,120.962 33.0949,121.128 33.4635,121.302 33.829,121.482 34.1911,121.669 34.5498,121.862 34.905,122.061 35.2566,122.267 35.6044,122.479 35.9483,122.698 36.2883,122.922 36.6241,123.153 36.9558,123.389 37.2832,123.632 37.6061,123.88 37.9246,124.134 38.2384,124.394 38.5475,124.659 38.8518,124.93 39.1512,125.207 39.4456,125.488 39.7348,125.775 40.0189,126.067 40.2976,126.364 40.571,126.666 40.8389,126.973 41.1013,127.285 41.358,127.601 41.609,127.922 41.8542,128.247 42.0935,128.577 42.3268,128.911 42.5542,129.249 42.7753,129.591 42.8522,129.713 " />
</g>
</g>
</svg>
