<?xml version="1.0" encoding="UTF-8" standalone="no"?>
<svg width="44.0267mm" height="28.9983mm"
 viewBox="14 14 208 137"
 xmlns="http://www.w3.org/2000/svg" xmlns:xlink="http://www.w3.org/1999/xlink"  version="1.2" baseProfile="tiny">
<title>{5e3c8b42-199f-44c6-a354-70de27b7aeb9}</title>
<desc>Efofex Encoded SVG</desc>
<defs>
</defs>
<g fill="none" stroke="black" stroke-width="1" fill-rule="evenodd" stroke-linecap="square" stroke-linejoin="bevel" >

<g fill="none" stroke="#000000" stroke-opacity="0.00392157" stroke-width="1" stroke-linecap="square" stroke-linejoin="bevel" transform="matrix(1,0,0,1,0,0)"
font-family="MS Shell Dlg 2" font-size="1.66667" font-weight="400" font-style="normal" 
>
<text fill="#000000" fill-opacity="0.00392157" stroke="none" xml:space="preserve" x="14" y="19" font-family="MS Shell Dlg 2" font-size="1.66667" font-weight="400" font-style="normal" 
 >FXID{5e3c8b42-199f-44c6-a354-70de27b7aeb9}/FXID</text>
<text fill="#000000" fill-opacity="0.00392157" stroke="none" xml:space="preserve" x="14" y="24" font-family="MS Shell Dlg 2" font-size="1.66667" font-weight="400" font-style="normal" 
 >FXPRODUCTFX Draw/FXPRODUCT</text>
</g>

<g fill="none" stroke="#282828" stroke-opacity="1" stroke-width="1.66667" stroke-linecap="square" stroke-linejoin="bevel" transform="matrix(1,0,0,1,0,0)"
font-family="Efofex" font-size="18.3333" font-weight="400" font-style="normal" 
>
<polyline fill="none" vector-effect="none" points="47.2441,23.622 23.622,141.732 " />
</g>

<g fill="none" stroke="#282828" stroke-opacity="1" stroke-width="1.66667" stroke-linecap="square" stroke-linejoin="bevel" transform="matrix(1,0,0,1,0,0)"
font-family="Efofex" font-size="18.3333" font-weight="400" font-style="normal" 
>
<polyline fill="none" vector-effect="none" points="47.2441,23.622 212.598,23.622 " />
</g>

<g fill="none" stroke="#282828" stroke-opacity="1" stroke-width="1.66667" stroke-linecap="square" stroke-linejoin="bevel" transform="matrix(1,0,0,1,0,0)"
font-family="Efofex" font-size="18.3333" font-weight="400" font-style="normal" 
>
<polyline fill="none" vector-effect="none" points="212.598,23.622 188.976,141.732 " />
</g>

<g fill="none" stroke="#282828" stroke-opacity="1" stroke-width="1.66667" stroke-linecap="square" stroke-linejoin="bevel" transform="matrix(1,0,0,1,0,0)"
font-family="Efofex" font-size="18.3333" font-weight="400" font-style="normal" 
>
<polyline fill="none" vector-effect="none" points="188.976,141.732 23.622,141.732 " />
</g>

<g fill="none" stroke="#282828" stroke-opacity="1" stroke-width="1.66667" stroke-linecap="square" stroke-linejoin="bevel" transform="matrix(1,0,0,1,0,0)"
font-family="Efofex" font-size="18.3333" font-weight="400" font-style="normal" 
>
<polyline fill="none" vector-effect="none" points="212.598,23.622 23.622,141.732 " />
</g>

<g fill="none" stroke="#282828" stroke-opacity="1" stroke-width="1.66667" stroke-linecap="square" stroke-linejoin="bevel" transform="matrix(1,0,0,1,0,0)"
font-family="Efofex" font-size="18.3333" font-weight="400" font-style="normal" 
>
<polyline fill="none" vector-effect="none" points="47.2441,23.622 188.976,141.732 " />
</g>

<g fill="#282828" fill-opacity="1" stroke="#282828" stroke-opacity="1" stroke-width="1.66667" stroke-linecap="square" stroke-linejoin="bevel" transform="matrix(1,0,0,1,0,0)"
font-family="Efofex" font-size="18.3333" font-weight="400" font-style="normal" 
>
<polyline fill="none" vector-effect="none" points="75.5906,23.622 75.5884,23.9694 75.582,24.3167 75.5714,24.6639 75.5565,25.011 75.5374,25.3578 75.514,25.7044 75.4863,26.0507 75.4544,26.3966 75.4183,26.742 75.378,27.0871 75.3334,27.4315 75.2846,27.7755 75.2316,28.1188 75.1744,28.4614 75.113,28.8033 75.0474,29.1444 74.9777,29.4847 74.9037,29.8241 74.8257,30.1626 74.7434,30.5001 74.6571,30.8365 74.5666,31.1719 74.4721,31.5062 74.3734,31.8392 74.2707,32.1711 74.1639,32.5016 74.053,32.8308 73.9382,33.1587 73.8193,33.485 73.6965,33.81 73.5696,34.1333 73.4389,34.4552 73.3041,34.7753 73.1655,35.0938 73.023,35.4106 72.8766,35.7256 72.7263,36.0388 72.5723,36.3502 72.4144,36.6596 72.2528,36.967 72.0873,37.2725 71.9182,37.5759 71.7454,37.8772 71.5688,38.1764 71.3887,38.4734 71.2049,38.7681 71.0175,39.0606 70.8265,39.3508 70.632,39.6386 70.4339,39.924 70.2324,40.2069 70.0275,40.4874 69.8191,40.7653 69.6073,41.0406 69.3922,41.3134 69.1737,41.5834 69.0204,41.769 " />
</g>

<g fill="#282828" fill-opacity="1" stroke="#282828" stroke-opacity="1" stroke-width="1.66667" stroke-linecap="square" stroke-linejoin="bevel" transform="matrix(1,0,0,1,0,0)"
font-family="Efofex" font-size="18.3333" font-weight="400" font-style="normal" 
>
<polyline fill="none" vector-effect="none" points="160.63,141.732 160.632,141.385 160.638,141.038 160.649,140.69 160.664,140.343 160.683,139.997 160.707,139.65 160.734,139.304 160.766,138.958 160.802,138.612 160.842,138.267 160.887,137.923 160.936,137.579 160.989,137.236 161.046,136.893 161.107,136.551 161.173,136.21 161.243,135.87 161.317,135.53 161.395,135.192 161.477,134.854 161.563,134.518 161.654,134.182 161.748,133.848 161.847,133.515 161.95,133.183 162.057,132.853 162.167,132.524 162.282,132.196 162.401,131.869 162.524,131.544 162.651,131.221 162.782,130.899 162.916,130.579 163.055,130.26 163.197,129.944 163.344,129.629 163.494,129.316 163.648,129.004 163.806,128.695 163.968,128.387 164.133,128.082 164.302,127.778 164.475,127.477 164.652,127.178 164.832,126.881 165.016,126.586 165.203,126.294 165.394,126.004 165.589,125.716 165.787,125.43 165.988,125.147 166.193,124.867 166.401,124.589 166.613,124.314 166.828,124.041 167.047,123.771 167.2,123.585 " />
</g>

<g fill="#282828" fill-opacity="1" stroke="#282828" stroke-opacity="1" stroke-width="1.66667" stroke-linecap="square" stroke-linejoin="bevel" transform="matrix(1,0,0,1,0,0)"
font-family="Efofex" font-size="18.3333" font-weight="400" font-style="normal" 
>
<polyline fill="none" vector-effect="none" points="51.9685,141.732 51.9671,141.453 51.963,141.174 51.9561,140.895 51.9465,140.615 51.9341,140.336 51.919,140.057 51.9011,139.779 51.8805,139.5 51.8571,139.222 51.831,138.944 51.8022,138.666 51.7706,138.388 51.7363,138.111 51.6992,137.834 51.6595,137.558 51.617,137.282 51.5718,137.006 51.5239,136.731 51.4732,136.457 51.4199,136.182 51.3639,135.909 51.3051,135.636 51.2437,135.363 51.1796,135.091 51.1129,134.82 51.0434,134.55 50.9713,134.28 50.8966,134.011 50.8192,133.742 50.7391,133.475 50.6564,133.208 50.5711,132.942 50.4832,132.677 50.3927,132.413 50.2996,132.149 50.2039,131.887 50.1056,131.626 50.0047,131.365 49.9013,131.106 49.7953,130.847 49.6868,130.59 49.5757,130.334 49.4621,130.078 49.3461,129.824 49.2275,129.572 49.1064,129.32 48.9829,129.069 48.8569,128.82 48.7285,128.572 48.5976,128.325 48.4643,128.08 48.3285,127.836 48.1904,127.593 48.0499,127.352 47.907,127.112 47.7618,126.873 47.6598,126.709 " />
<polyline fill="none" vector-effect="none" points="46.2992,141.732 46.2975,141.453 46.2923,141.174 46.2837,140.895 46.2717,140.616 46.2562,140.337 46.2373,140.058 46.215,139.78 46.1892,139.501 46.16,139.224 46.1274,138.946 46.0914,138.669 46.052,138.393 46.0092,138.117 45.9629,137.841 45.9133,137.567 45.8603,137.292 45.804,137.019 45.7442,136.746 45.6811,136.474 45.6147,136.203 45.5449,135.932 45.4718,135.663 45.3954,135.394 45.3157,135.126 45.2327,134.86 45.1464,134.594 45.0569,134.329 44.9641,134.066 44.868,133.804 44.7688,133.543 44.6663,133.283 44.5606,133.024 44.4518,132.767 44.3398,132.511 44.2247,132.257 44.1064,132.004 43.985,131.752 43.8606,131.502 43.733,131.254 43.6025,131.007 43.4689,130.761 43.3322,130.518 43.1926,130.276 43.05,130.036 42.9045,129.797 42.8522,129.713 " />
</g>

<g fill="#282828" fill-opacity="1" stroke="#282828" stroke-opacity="1" stroke-width="1.66667" stroke-linecap="square" stroke-linejoin="bevel" transform="matrix(1,0,0,1,0,0)"
font-family="Efofex" font-size="18.3333" font-weight="400" font-style="normal" 
>
<polyline fill="none" vector-effect="none" points="184.252,23.622 184.253,23.9013 184.257,24.1806 184.264,24.4598 184.274,24.739 184.286,25.018 184.301,25.2969 184.319,25.5756 184.34,25.8541 184.363,26.1325 184.389,26.4105 184.418,26.6883 184.45,26.9658 184.484,27.243 184.521,27.5199 184.561,27.7963 184.603,28.0724 184.649,28.348 184.697,28.6231 184.747,28.8978 184.801,29.172 184.857,29.4456 184.915,29.7186 184.977,29.9911 185.041,30.2629 185.108,30.5341 185.177,30.8047 185.249,31.0745 185.324,31.3436 185.401,31.612 185.481,31.8796 185.564,32.1463 185.649,32.4123 185.737,32.6774 185.828,32.9416 185.921,33.2049 186.017,33.4673 186.115,33.7287 186.216,33.9892 186.319,34.2486 186.425,34.507 186.534,34.7644 186.645,35.0207 186.758,35.2758 186.874,35.5299 186.993,35.7827 187.114,36.0344 187.238,36.2849 187.364,36.5342 187.492,36.7822 187.623,37.0289 187.756,37.2744 187.892,37.5185 188.03,37.7612 188.171,38.0026 188.313,38.2426 188.459,38.4812 188.561,38.6456 " />
<polyline fill="none" vector-effect="none" points="189.921,23.622 189.923,23.9013 189.928,24.1806 189.937,24.4598 189.949,24.7388 189.964,25.0177 189.983,25.2963 190.005,25.5747 190.031,25.8528 190.06,26.1306 190.093,26.408 190.129,26.685 190.168,26.9615 190.211,27.2374 190.258,27.5129 190.307,27.7878 190.36,28.062 190.417,28.3355 190.476,28.6084 190.539,28.8804 190.606,29.1517 190.676,29.4222 190.749,29.6917 190.825,29.9604 190.905,30.228 190.988,30.4947 191.074,30.7604 191.164,31.0249 191.256,31.2883 191.352,31.5506 191.452,31.8117 191.554,32.0715 191.66,32.33 191.769,32.5873 191.881,32.8431 191.996,33.0976 192.114,33.3506 192.235,33.6022 192.36,33.8522 192.487,34.1007 192.618,34.3476 192.752,34.5928 192.888,34.8364 193.028,35.0783 193.17,35.3185 193.316,35.5569 193.368,35.6409 " />
</g>
</g>
</svg>
